<?xml version="1.0" encoding="UTF-8" standalone="no"?><!DOCTYPE svg PUBLIC "-//W3C//DTD SVG 1.1//EN" "http://www.w3.org/Graphics/SVG/1.1/DTD/svg11.dtd"><svg width="100%" height="100%" viewBox="0 0 368 110" version="1.1" xmlns="http://www.w3.org/2000/svg" xmlns:xlink="http://www.w3.org/1999/xlink" xml:space="preserve" style="fill-rule:evenodd;clip-rule:evenodd;stroke-linejoin:round;stroke-miterlimit:1.41421;"><g><path d="M126.344,19.101l-15.523,0l0,-18.711l-9.811,0l0,82.915l3.974,0l9.687,-9.686c0,0 0,9.686 4.843,9.686l6.83,0c0,0 18.503,0 18.503,-18.503l0,-27.321c0,-18.38 -18.503,-18.38 -18.503,-18.38Zm8.693,45.701c0,0 0,8.817 -8.693,8.817l-6.83,0c0,0 -8.693,0 -8.693,-8.817l0,-36.014l15.523,0c0,0 8.693,0 8.693,8.693l0,27.321Z" style="fill:#fff;fill-rule:nonzero;"/><path d="M177.26,94.854c0,15.647 17.013,15.647 17.013,15.647l16.517,0c18.379,0 18.379,-18.379 18.379,-18.379c0,-18.503 -18.379,-18.503 -18.379,-18.503l-17.758,0c0,0 -7.452,0 -7.452,-7.451c0,-2.732 1.614,-4.844 3.725,-6.209c5.713,2.855 10.556,2.855 10.556,2.855l6.706,0c18.628,0 18.628,-18.379 18.628,-18.379l0,-6.954c0,0 0,-8.693 -9.811,-8.693l9.811,-3.354l0,-6.333l-25.334,0c-18.503,0 -18.503,18.38 -18.503,18.38l0,6.954c0,5.837 2.359,10.431 5.961,14.158c-5.216,2.359 -10.059,6.209 -10.059,11.549c0,11.672 10.059,12.914 10.431,13.163c-0.372,0 -10.431,0 -10.431,11.549Zm33.53,-11.549c8.693,0 8.693,8.817 8.693,8.817c0,8.693 -8.693,8.693 -8.693,8.693l-16.517,0c0,0 -8.693,0 -8.693,-8.693c0,-7.7 6.954,-8.817 8.693,-8.817l16.517,0Zm4.594,-38.87c0,8.693 -8.817,8.693 -8.817,8.693l-6.706,0c-8.817,0 -8.817,-8.693 -8.817,-8.693l0,-6.954c0,-8.693 8.817,-8.693 8.817,-8.693l6.706,0c8.817,0 8.817,8.693 8.817,8.693l0,6.954Z" style="fill:#fff;fill-rule:nonzero;"/><path d="M246.804,37.481c0,-8.693 8.692,-8.693 8.692,-8.693l11.674,0l0,-9.687l-11.674,0c-4.719,0 -4.719,9.563 -4.719,9.563l-9.811,-9.563l-3.849,0l0,54.518l-6.831,0l0,9.686l30.178,0l0,-9.686l-13.66,0l0,-36.138Z" style="fill:#fff;fill-rule:nonzero;"/><path d="M315.353,37.481c0,-18.38 -18.628,-18.38 -18.628,-18.38l-6.705,0c-18.629,0 -18.629,18.38 -18.629,18.38l0,27.321c0,18.503 18.629,18.503 18.629,18.503l25.333,0l0,-9.686l-25.333,0c-8.817,0 -8.817,-8.817 -8.817,-8.817l0,-8.693l15.522,0c18.628,0 18.628,-18.628 18.628,-18.628Zm-34.15,8.817l0,-8.817c0,-8.693 8.817,-8.693 8.817,-8.693l6.705,0c0,0 8.818,0 8.818,8.693c0,8.817 -8.818,8.817 -8.818,8.817l-15.522,0Z" style="fill:#fff;fill-rule:nonzero;"/><path d="M349.877,19.101l-6.707,0c-4.967,0 -4.967,9.563 -4.967,9.563l-9.562,-9.563l-4.098,0l0,83.386l9.81,0l0,-19.182l15.524,0c0,0 18.627,0 18.627,-18.503l0,-27.321c0,-18.38 -18.627,-18.38 -18.627,-18.38Zm8.817,45.701c0,8.817 -8.817,8.817 -8.817,8.817l-15.524,0l0,-36.138c0,-8.693 8.817,-8.693 8.817,-8.693l6.707,0c8.817,0 8.817,8.693 8.817,8.693l0,27.321Z" style="fill:#fff;fill-rule:nonzero;"/><path d="M167.573,19.101l0,54.518l6.706,0l0,9.686l-23.347,0l0,-9.686l6.831,0l0,-54.518l9.81,0Z" style="fill:#fff;"/><path d="M157.647,0l9.921,0l0,6.953l-2.968,2.968l-6.953,0l0,-9.921Z" style="fill:#fff;"/><path d="M0,18.613l27.158,0l0,19.16l-8.124,8.179l-19.034,0l0,-27.339Z" style="fill:#fff;"/><path d="M64.144,83.305l-27.158,0l0,-19.193l8.125,-8.193l19.033,0l0,27.386Z" style="fill:#67a1af;"/><path d="M0,83.305l0,-27.386l19.033,0l8.125,8.193l0,19.193l-27.158,0Z" style="fill:#85776b;"/><path d="M64.144,18.613l0,27.339l-19.033,0l-8.125,-8.179l0,-19.16l27.158,0Z" style="fill:#dd5d37;"/></g></svg>