<?xml version="1.0" encoding="UTF-8" standalone="no"?>
<!-- Generator: Adobe Illustrator 16.0.0, SVG Export Plug-In . SVG Version: 6.00 Build 0)  -->

<svg
   xmlns:dc="http://purl.org/dc/elements/1.1/"
   xmlns:cc="http://creativecommons.org/ns#"
   xmlns:rdf="http://www.w3.org/1999/02/22-rdf-syntax-ns#"
   xmlns:svg="http://www.w3.org/2000/svg"
   xmlns="http://www.w3.org/2000/svg"
   xmlns:sodipodi="http://sodipodi.sourceforge.net/DTD/sodipodi-0.dtd"
   xmlns:inkscape="http://www.inkscape.org/namespaces/inkscape"
   version="1.1"
   id="Capa_1"
   x="0px"
   y="0px"
   width="418.879px"
   height="418.879px"
   viewBox="0 0 418.879 418.879"
   style="enable-background:new 0 0 418.879 418.879;"
   xml:space="preserve"
   sodipodi:docname="gears.svg"
   inkscape:version="0.92.3 (unknown)"><metadata
   id="metadata4143"><rdf:RDF><cc:Work
       rdf:about=""><dc:format>image/svg+xml</dc:format><dc:type
         rdf:resource="http://purl.org/dc/dcmitype/StillImage" /><dc:title></dc:title></cc:Work></rdf:RDF></metadata><defs
   id="defs4141" /><sodipodi:namedview
   pagecolor="#ffffff"
   bordercolor="#666666"
   borderopacity="1"
   objecttolerance="10"
   gridtolerance="10"
   guidetolerance="10"
   inkscape:pageopacity="0"
   inkscape:pageshadow="2"
   inkscape:window-width="640"
   inkscape:window-height="480"
   id="namedview4139"
   showgrid="false"
   inkscape:zoom="0.56340853"
   inkscape:cx="209.4395"
   inkscape:cy="209.4395"
   inkscape:window-x="380"
   inkscape:window-y="149"
   inkscape:window-maximized="0"
   inkscape:current-layer="Capa_1"
   inkscape:pagecheckerboard="true" />
<g
   id="g4106"
   style="fill:#ffffff"
   transform="matrix(0.69491453,0,0,0.68314214,63.896796,66.363028)">
	<g
   id="g4104"
   style="fill:#ffffff">
		<path
   d="m 188.634,234.066 c 8.462,-5.287 16.126,-11.735 22.767,-19.127 l 23.942,13.826 21.8,-37.76 -23.894,-13.796 c 3.038,-9.275 4.825,-19.113 5.16,-29.311 l 27.183,-4.793 -7.574,-42.938 -27.178,4.793 C 227.084,95.651 222.045,86.995 215.934,79.216 L 233.7,58.046 200.3,30.022 182.549,51.174 C 173.879,46.528 164.49,43.055 154.595,40.971 V 13.385 h -43.6 v 27.586 c -9.896,2.084 -19.285,5.557 -27.956,10.203 l -17.75,-21.152 -33.4,28.025 17.764,21.17 c -6.11,7.779 -11.149,16.436 -14.905,25.744 L 7.57,100.168 0,143.106 l 27.179,4.793 c 0.335,10.199 2.123,20.035 5.161,29.313 l -23.896,13.795 21.801,37.759 23.943,-13.822 c 6.639,7.389 14.303,13.838 22.766,19.125 l -9.451,25.963 40.972,14.91 9.438,-25.928 c 4.864,0.688 9.831,1.053 14.882,1.053 5.051,0 10.019,-0.363 14.883,-1.053 l 9.437,25.93 40.97,-14.914 z m -55.841,-34.001 c -30.702,0 -55.68,-24.977 -55.68,-55.68 0,-30.701 24.978,-55.68 55.68,-55.68 30.702,0 55.68,24.979 55.68,55.68 0,30.703 -24.977,55.68 -55.68,55.68 z"
   id="path4098"
   style="fill:#ffffff"
   inkscape:connector-curvature="0" />
		<path
   d="m 376.041,266.807 -18.795,6.08 c -3.584,-6.229 -8.014,-11.869 -13.115,-16.779 l 10.504,-16.764 -26.447,-16.57 -10.498,16.75 c -6.604,-2.438 -13.602,-3.973 -20.826,-4.471 l -2.725,-19.559 -30.912,4.309 2.725,19.559 c -6.809,2.453 -13.125,5.847 -18.812,9.996 l -14.672,-13.244 -20.912,23.168 14.684,13.259 c -3.562,6.118 -6.277,12.752 -8.02,19.726 l -19.744,-0.714 -1.129,31.188 19.743,0.716 c 1.246,7.198 3.486,13.991 6.558,20.271 l -15.578,12.143 19.185,24.615 15.609,-12.164 c 5.438,4.582 11.511,8.396 18.031,11.311 l -4.138,19.344 30.522,6.52 4.133,-19.314 c 3.516,0.01 7.072,-0.229 10.652,-0.727 3.582,-0.498 7.07,-1.25 10.447,-2.215 l 9.256,17.451 27.574,-14.623 -9.266,-17.471 c 5.48,-4.586 10.271,-9.918 14.252,-15.812 l 18.338,7.436 11.727,-28.924 -18.303,-7.422 c 1.234,-6.875 1.529,-14.027 0.764,-21.293 l 18.799,-6.084 z m -78.912,83.199 c -21.771,3.031 -41.949,-12.209 -44.98,-33.977 -3.037,-21.769 12.207,-41.949 33.977,-44.979 21.768,-3.036 41.941,12.207 44.98,33.978 3.029,21.767 -12.21,41.941 -33.977,44.978 z"
   id="path4100"
   style="fill:#ffffff"
   inkscape:connector-curvature="0" />
		<path
   d="m 418.146,158.647 0.732,-24.629 -15.586,-0.463 c -0.977,-5.428 -2.723,-10.803 -5.285,-15.971 l 12.24,-9.67 -15.271,-19.33 -12.238,9.666 c -4.365,-3.627 -9.193,-6.584 -14.318,-8.816 l 3.164,-15.291 -24.123,-4.996 -3.17,15.281 c -5.559,0.008 -11.156,0.797 -16.641,2.412 l -7.391,-13.727 -21.695,11.684 7.391,13.729 c -4.363,3.686 -8.107,7.934 -11.176,12.566 l -14.496,-5.77 -9.111,22.893 14.508,5.779 c -0.955,5.508 -1.141,11.158 -0.514,16.799 l -14.809,4.898 7.732,23.395 14.809,-4.896 c 2.9,4.986 6.426,9.396 10.426,13.201 l -8.191,13.268 20.963,12.946 8.209,-13.292 c 5.285,1.896 10.828,3.051 16.453,3.414 l 2.252,15.453 24.383,-3.561 -2.246,-15.434 c 2.602,-0.957 5.17,-2.109 7.684,-3.463 2.516,-1.352 4.891,-2.867 7.123,-4.51 l 11.648,10.371 16.387,-18.398 -11.656,-10.383 c 2.795,-4.9 4.875,-10.164 6.203,-15.619 z m -58.71,13.197 c -15.281,8.227 -34.404,2.492 -42.627,-12.783 -8.23,-15.277 -2.494,-34.404 12.787,-42.627 15.273,-8.229 34.395,-2.49 42.625,12.787 8.222,15.278 2.49,34.395 -12.785,42.623 z"
   id="path4102"
   style="fill:#ffffff"
   inkscape:connector-curvature="0" />
	</g>
</g>
<g
   id="g4108">
</g>
<g
   id="g4110">
</g>
<g
   id="g4112">
</g>
<g
   id="g4114">
</g>
<g
   id="g4116">
</g>
<g
   id="g4118">
</g>
<g
   id="g4120">
</g>
<g
   id="g4122">
</g>
<g
   id="g4124">
</g>
<g
   id="g4126">
</g>
<g
   id="g4128">
</g>
<g
   id="g4130">
</g>
<g
   id="g4132">
</g>
<g
   id="g4134">
</g>
<g
   id="g4136">
</g>
</svg>