<svg width="47px" height="47px" viewBox="0 0 47 47" version="1.1" xmlns="http://www.w3.org/2000/svg" xmlns:xlink="http://www.w3.org/1999/xlink">
    <g id="Printer-UI-Cyan" stroke="none" stroke-width="1" fill="none" fill-rule="evenodd">
        <g id="Print_print-status" transform="translate(-1776.000000, -191.000000)">
            <g id="infobox" transform="translate(1229.000000, 0.000000)">
                <g id="info-icon" transform="translate(548.000000, 192.000000)">
                    <circle id="Oval-5" stroke="#00CDFF" stroke-width="2" cx="22.5" cy="22.5" r="22.5"></circle>
                    <g id="information" transform="translate(18.000000, 10.000000)" fill="#FFFFFF" fill-rule="nonzero">
                        <path d="M4.5,0 C2.57010623,0 1,1.57010623 1,3.5 C1,5.42989377 2.57010623,7 4.5,7 C6.43003046,7 8,5.42989377 8,3.5 C8,1.56996954 6.42989377,0 4.5,0 Z M4.5,5.67786283 C3.29911342,5.67786283 2.32213717,4.70088658 2.32213717,3.5 C2.32213717,2.29911342 3.29911342,1.32213717 4.5,1.32213717 C5.70095493,1.32213717 6.67786283,2.29911342 6.67786283,3.5 C6.67786283,4.70088658 5.70088658,5.67786283 4.5,5.67786283 Z" id="Shape"></path>
                        <path d="M8.34473649,21.2511923 L7.59869936,21.2511923 L7.59869936,9.70421202 C7.59869936,9.31526448 7.30531093,9 6.94350359,9 L0.655195773,9 C0.293320688,9 0,9.31533729 0,9.70421202 L0,12.0445229 C0,12.4334705 0.29338843,12.7487349 0.655195773,12.7487349 L1.4012329,12.7487349 L1.4012329,21.2511923 L0.655195773,21.2511923 C0.293320688,21.2511923 0,21.5665295 0,21.9554043 L0,24.2957152 C0,24.6847355 0.29338843,25 0.655195773,25 L8.34480423,25 C8.70667931,25 9,24.6846627 9,24.295788 L9,21.9554771 C8.99993226,21.5665295 8.70654383,21.2511923 8.34473649,21.2511923 Z M7.68947297,23.591576 L1.31025606,23.591576 L1.31025606,22.6596163 L2.05629319,22.6596163 C2.41816827,22.6596163 2.71148896,22.344279 2.71148896,21.9554043 L2.71148896,12.0445229 C2.71148896,11.6555754 2.41810053,11.3403109 2.05629319,11.3403109 L1.31025606,11.3403109 L1.31025606,10.4084969 L6.28824008,10.4084969 L6.28824008,21.9555499 C6.28824008,22.3444974 6.58162851,22.6597619 6.94343585,22.6597619 L7.68947297,22.6597619 L7.68947297,23.591576 Z" id="Shape"></path>
                    </g>
                </g>
            </g>
        </g>
    </g>
</svg>