<svg width="38px" height="32px" viewBox="0 0 38 32" version="1.1" xmlns="http://www.w3.org/2000/svg" xmlns:xlink="http://www.w3.org/1999/xlink">
    <!-- Generator: Sketch 51.3 (57544) - http://www.bohemiancoding.com/sketch -->
    <desc>Created with Sketch.</desc>
    <defs></defs>
    <g id="Printer-UI-Cyan" stroke="none" stroke-width="1" fill="none" fill-rule="evenodd">
        <g id="Print_print-status" transform="translate(-65.000000, -664.000000)" fill="#FFFFFF" fill-rule="nonzero">
            <g id="nav-bar" transform="translate(29.000000, 345.000000)">
                <g id="Group-8" transform="translate(2.000000, 280.000000)">
                    <g id="Group-6" transform="translate(34.000000, 38.000000)">
                        <g id="filament-status">
                            <g id="noun_1406277_cc" transform="translate(0.087451, 0.403820)">
                                <g id="Group">
                                    <path d="M19.1684823,10.6672908 C9.95017367,10.6672908 0.618338139,8.94280653 0.618338139,5.6469581 C0.618338139,2.35110967 9.95017367,0.62662538 19.1684823,0.62662538 C28.386791,0.62662538 37.7186265,2.35110967 37.7186265,5.6469581 C37.7186265,8.94280653 28.386791,10.6672908 19.1684823,10.6672908 Z M19.1684823,1.88170856 C8.44176251,1.88170856 1.85501442,4.07473423 1.85501442,5.6469581 C1.85501442,7.21918198 8.44176251,9.41220764 19.1684823,9.41220764 C29.8952021,9.41220764 36.4819502,7.21918198 36.4819502,5.6469581 C36.4819502,4.07473423 29.8952021,1.88170856 19.1684823,1.88170856 Z" id="Shape"></path>
                                    <path d="M19.1684823,8.15804067 C18.2192343,8.15804067 9.89341022,8.08756775 9.89341022,5.64787431 C9.89341022,3.20818087 18.2192343,3.13770795 19.1684823,3.13770795 C20.1177303,3.13770795 28.4435544,3.20818087 28.4435544,5.64787431 C28.4435544,8.08756775 20.1177303,8.15804067 19.1684823,8.15804067 Z M11.1820269,5.64787431 C11.7194493,6.13630248 14.5937571,6.90295749 19.1684823,6.90295749 C23.7432076,6.90295749 26.6175277,6.13630248 27.1549377,5.64787431 C26.6175153,5.15944614 23.7432076,4.39279113 19.1684823,4.39279113 C14.5937571,4.39279113 11.7194431,5.15944614 11.1820269,5.64787431 Z" id="Shape"></path>
                                    <path d="M18.8073728,32.0046211 C14.6147911,32.0633293 10.430474,31.6099447 6.34460688,30.6542395 C2.60196689,29.6779981 0.619574815,28.3083133 0.612296975,26.6928832 C0.604444081,25.3985786 1.83266768,24.2657531 4.26315085,23.3262794 C4.46991603,23.2451883 4.70363407,23.2826409 4.87572141,23.4244421 C5.04780876,23.5662431 5.13192822,23.7906906 5.09619692,24.0127148 C5.06046562,24.2347389 4.91035207,24.4203598 4.70275217,24.4992237 C2.91174811,25.1914021 1.84475,26.0092456 1.84897944,26.6864258 C1.85199693,27.3792317 3.11224426,28.5151196 6.65257019,29.43866 C10.760927,30.3946235 14.9694714,30.8345642 19.1835759,30.7485903 C29.9090838,30.6817885 36.4837619,28.2218757 36.475909,26.4875829 C36.4716796,25.8192888 35.4318575,25.0278145 33.6940058,24.3708852 C33.4859421,24.29351 33.3345992,24.1090334 33.297317,23.887349 C33.2600348,23.6656645 33.3425167,23.4406846 33.5135123,23.2976488 C33.6845079,23.1546128 33.9178589,23.115402 34.1251544,23.1948722 C36.4982681,24.0911397 37.704751,25.1969997 37.7126039,26.4811946 C37.72468,29.1687732 31.366785,31.928061 19.1908414,32.0037425 C19.0634143,32.0043136 18.9347938,32.0046211 18.8073728,32.0046211 Z" id="Shape"></path>
                                    <path d="M19.1684823,14.4334566 C11.6747558,14.4334566 3.71002883,12.4350065 3.71002883,8.73165134 C3.70809841,8.46376181 3.75497904,8.19781803 3.84830779,7.94722435 C3.94492315,7.65681404 4.23421706,7.4798229 4.53237236,7.52871097 C4.83052766,7.57759903 5.05018453,7.83804209 5.05177313,8.14455481 L5.05177313,8.26127754 L5.01010951,8.37771788 C4.96668962,8.49044406 4.94515955,8.61062838 4.94670511,8.73165134 C4.94670511,10.8349009 10.7871005,13.1783734 19.1684823,13.1783734 C27.5498641,13.1783734 33.3902595,10.8349009 33.3902595,8.73165134 C33.391805,8.61062838 33.370275,8.49044406 33.3268551,8.37771788 L33.2851915,8.26863233 L33.2851915,8.15190959 C33.2836925,7.83707712 33.5120534,7.5697407 33.8193446,7.52658956 C34.1266359,7.48343849 34.4179426,7.67780104 34.500733,7.98121828 C34.5859895,8.2218754 34.6287128,8.47591854 34.6269358,8.73165134 C34.6269358,12.4350065 26.6622088,14.4334566 19.1684823,14.4334566 Z" id="Shape"></path>
                                    <path d="M19.1684823,18.1987061 C11.6747558,18.1987061 3.71002883,16.2088345 3.71002883,12.5208039 C3.76487492,11.5569036 4.25455885,10.6725044 5.03727928,10.123708 C5.30149192,9.90528358 5.69003234,9.94499591 5.90602462,10.2125016 C6.1220169,10.4800074 6.08402258,10.8744453 5.82107234,11.0944333 C5.33485418,11.4140109 5.01431009,11.9369201 4.94670511,12.5208039 C4.94670511,14.6127076 10.7871005,16.9436229 19.1684823,16.9436229 C27.5498641,16.9436229 33.3902595,14.6127076 33.3902595,12.5208039 C33.3226546,11.9369201 33.0021104,11.4140109 32.5158923,11.0944333 C32.3442892,10.952569 32.2604909,10.7284352 32.2961712,10.5067486 C32.3318515,10.2850619 32.4815675,10.099639 32.6887304,10.0205652 C32.8958933,9.94149122 33.1289021,9.98082835 33.2996853,10.123708 C34.0824058,10.6725044 34.5720897,11.5569036 34.6269358,12.5208039 C34.6269358,16.2088345 26.6622088,18.1987061 19.1684823,18.1987061 Z" id="Shape"></path>
                                    <path d="M19.1684823,21.9639557 C11.6747558,21.9639557 3.71002883,20.0038044 3.71002883,16.3715435 C3.76657708,15.4148542 4.25875865,14.5394128 5.04150872,14.0032454 C5.30751177,13.7866167 5.6961261,13.829533 5.90999381,14.099156 C6.12386153,14.3687789 6.08218278,14.7632441 5.81684909,14.9807168 C5.33606085,15.2885341 5.01669229,15.7990087 4.94670511,16.3715435 C4.94670511,18.423002 10.7871005,20.7088725 19.1684823,20.7088725 C27.5498641,20.7088725 33.3902595,18.423002 33.3902595,16.3715435 C33.3202724,15.7990087 33.0009038,15.2885341 32.5201155,14.9807168 C32.2547819,14.7632441 32.2131031,14.3687789 32.4269708,14.099156 C32.6408385,13.829533 33.0294528,13.7866167 33.2954559,14.0032454 C34.078206,14.5394128 34.5703875,15.4148542 34.6269358,16.3715435 C34.6269358,20.0038044 26.6622088,21.9639557 19.1684823,21.9639557 Z" id="Shape"></path>
                                    <path d="M19.1684823,25.7292052 C11.6747558,25.7292052 3.71002883,23.7990881 3.71002883,20.2219755 C3.76822294,19.2726698 4.26269107,18.4063301 5.04513218,17.8827891 C5.31296667,17.6682441 5.7013992,17.7143306 5.91324954,17.9857891 C6.12509989,18.2572475 6.08034494,18.6515388 5.81322563,18.8670003 C5.33772688,19.1628245 5.01929308,19.6607584 4.94670511,20.2219755 C4.94670511,22.2332965 10.7871005,24.474122 19.1684823,24.474122 C27.5498641,24.474122 33.3902595,22.2332965 33.3902595,20.2219755 C33.3176716,19.6607584 32.9992377,19.1628245 32.523739,18.8670003 C32.2566197,18.6515388 32.2118648,18.2572475 32.4237151,17.9857891 C32.6355654,17.7143306 33.023998,17.6682441 33.2918324,17.8827891 C34.0742736,18.4063301 34.5687417,19.2726698 34.6269358,20.2219755 C34.6269358,23.7990881 26.6622088,25.7292052 19.1684823,25.7292052 Z" id="Shape"></path>
                                    <path d="M19.1684823,29.4944547 C11.6747558,29.4944547 3.71002883,27.5364497 3.71002883,23.9081674 C3.76674757,22.9521066 4.25896644,22.0773923 5.04150872,21.5420155 C5.30770349,21.3258251 5.69608367,21.3690435 5.90979508,21.6386372 C6.12350648,21.9082308 6.0819322,22.3025028 5.81684909,22.5200956 C5.33636026,22.8269315 5.01695583,23.3364521 4.94670511,23.9081674 C4.94670511,25.956871 10.7871005,28.2393716 19.1684823,28.2393716 C27.5498641,28.2393716 33.3902595,25.956871 33.3902595,23.9081674 C33.320007,23.3364544 33.0006028,22.8269364 32.5201155,22.5201018 C32.3473013,22.3797506 32.2615662,22.1563723 32.2953035,21.9343666 C32.3290409,21.712361 32.4771068,21.5255781 32.683557,21.4445908 C32.8900073,21.3636035 33.1233634,21.4007602 33.2954559,21.5420218 C34.0779965,22.0773972 34.5702152,22.9521089 34.6269358,23.9081674 C34.6269358,27.5364497 26.6622088,29.4944547 19.1684823,29.4944547 Z" id="Shape"></path>
                                </g>
                            </g>
                        </g>
                    </g>
                </g>
            </g>
        </g>
    </g>
</svg>