<svg xmlns="http://www.w3.org/2000/svg" xmlns:xlink="http://www.w3.org/1999/xlink" viewBox="0 0 112 110">
  <defs>
    <style>
      .cls-1, .cls-3, .cls-4 {
        fill: none;
      }

      .cls-2 {
        clip-path: url(#clip-path);
      }

      .cls-3, .cls-4 {
        stroke: #fff;
        stroke-width: 2px;
      }

      .cls-3 {
        stroke-linecap: round;
      }

      .cls-5 {
        fill: #fff;
      }

      .cls-6 {
        stroke: none;
      }
    </style>
    <clipPath id="clip-path">
      <rect class="cls-1" width="112" height="110"/>
    </clipPath>
  </defs>
  <g id="icon-infoscene" class="cls-2">
    <g id="icon-infoscene-2" data-name="icon-infoscene" transform="translate(-30 -57)">
      <g id="icon-infoscene-inner" transform="translate(-7.974 -8.974)">
        <path id="Path_791" data-name="Path 791" class="cls-3" d="M80.693-850.28v3.767h2.246v15.521H80.693v3.493H92.676v-3.493H90.2V-850.28H80.693Z" transform="translate(6.643 968.741)"/>
        <g id="Ellipse_1" data-name="Ellipse 1" class="cls-4" transform="translate(61.969 90)">
          <circle class="cls-6" cx="31.974" cy="31.974" r="31.974"/>
          <circle class="cls-1" cx="31.974" cy="31.974" r="30.974"/>
        </g>
      </g>
      <rect id="Rectangle_90" data-name="Rectangle 90" class="cls-1" width="112" height="110" transform="translate(30 57)"/>
      <path id="Path_826" data-name="Path 826" class="cls-5" d="M1830.073-848a5.078,5.078,0,0,0-5.073,5.073,5.078,5.078,0,0,0,5.073,5.073,5.184,5.184,0,0,0,4.39-2.534,4.807,4.807,0,0,0,.682-2.539A5.078,5.078,0,0,0,1830.073-848Zm0,8.229a3.16,3.16,0,0,1-3.157-3.156,3.16,3.16,0,0,1,3.157-3.157,3.16,3.16,0,0,1,3.156,3.157A3.16,3.16,0,0,1,1830.073-839.771Z" transform="translate(-1745.653 941.453)"/>
    </g>
  </g>
</svg>
