<svg width="25px" height="46px" viewBox="0 0 25 46" version="1.1" xmlns="http://www.w3.org/2000/svg" xmlns:xlink="http://www.w3.org/1999/xlink">
    <!-- Generator: Sketch 51.3 (57544) - http://www.bohemiancoding.com/sketch -->
    <desc>Created with Sketch.</desc>
    <defs></defs>
    <g id="Printer-UI-Cyan" stroke="none" stroke-width="1" fill="none" fill-rule="evenodd">
        <g id="Print_print-status" transform="translate(-74.000000, -377.000000)" fill="#FFFFFF" fill-rule="nonzero">
            <g id="nav-bar" transform="translate(29.000000, 345.000000)">
                <g id="Group-3" transform="translate(2.000000, 0.000000)">
                    <g id="Group-5" transform="translate(43.000000, 32.000000)">
                        <g id="temperature">
                            <g id="thermometer">
                                <path d="M16.3406632,25.1789463 L16.3406632,5.99336448 C16.3406632,2.68327656 13.7810356,0 10.623481,0 C7.46592646,0 4.90629892,2.68327656 4.90629892,5.99336448 L4.90629892,25.170427 C-0.0352846594,28.4755098 -1.48550662,35.3543544 1.66727348,40.5346532 C3.61292361,43.7314338 6.9777108,45.6693735 10.5950373,45.6765084 L10.6519247,45.6850278 C16.5136618,45.6735267 21.2565458,40.6827835 21.2455747,34.5379875 C21.2387685,30.7459172 19.3901317,27.2185858 16.3406632,25.1789463 Z M6.15782138,42.7234879 C1.85490027,40.1192283 0.380704338,34.3513072 2.86495609,29.8406295 C3.6545733,28.406929 4.79018771,27.216456 6.15782138,26.3886944 C6.41025915,26.2358785 6.56527727,25.953036 6.56415984,25.6475107 L6.56415984,5.99336448 C6.56415984,3.62434554 8.39613678,1.7038705 10.6559881,1.7038705 C12.9158395,1.7038705 14.7478164,3.62434554 14.7478164,5.99336448 L14.7478164,25.6475107 C14.746699,25.953036 14.9017171,26.2358785 15.1541549,26.3886944 C19.457076,28.9929539 20.9312719,34.7608751 18.4470201,39.2715527 C15.9627684,43.7823369 10.4606409,45.3278539 6.15782138,42.7234879 Z" id="Shape"></path>
                                <path d="M11.3896005,28.5222805 L11.3896005,15.7589157 C11.3896005,15.2942771 11.0464076,14.9175601 10.6231173,14.9175601 C10.199827,14.9175601 9.85663419,15.2942771 9.85663419,15.7589157 L9.85663419,28.5222805 C6.96114832,28.9780849 4.95047142,31.9240916 5.36571366,35.1024176 C5.74052392,37.9712299 7.98287034,40.0989131 10.6231173,40.0909203 C13.5482086,40.0997545 15.9260309,37.5040672 15.9341748,34.2932438 C15.9414564,31.3950892 14.0031164,28.9337034 11.3896005,28.5222805 Z M10.6231173,38.3997955 C8.54460667,38.3997955 6.85968511,36.5502855 6.85968511,34.2687394 C6.86390077,31.9891915 8.54633126,30.1423107 10.6231173,30.1376833 C12.701628,30.1376833 14.3865496,31.9871933 14.3865496,34.2687394 C14.3865496,36.5502855 12.7015322,38.3997955 10.6231173,38.3997955 Z" id="Shape"></path>
                                <path d="M23.9281181,5.59408503 L18.5630692,5.59408503 C18.0890135,5.59408503 17.7046614,6.01154363 17.7046614,6.52643254 C17.7046614,7.04132145 18.0890135,7.45878005 18.5630692,7.45878005 L23.9281181,7.45878005 C24.4021739,7.45878005 24.786526,7.04132145 24.786526,6.52643254 C24.786526,6.01154363 24.4021739,5.59408503 23.9281181,5.59408503 Z" id="Shape"></path>
                                <path d="M23.1206641,9.32347506 L20.2557564,9.32347506 C19.8246541,9.32347506 19.4751276,9.74093365 19.4751276,10.2558226 C19.4751276,10.7707115 19.8246541,11.1881701 20.2557564,11.1881701 L23.1206641,11.1881701 C23.5517664,11.1881701 23.9012929,10.7707115 23.9012929,10.2558226 C23.9012929,9.74093365 23.5517664,9.32347506 23.1206641,9.32347506 Z" id="Shape"></path>
                                <path d="M23.9281181,14.9175601 L18.5630692,14.9175601 C18.0890135,14.9175601 17.7046614,15.3350187 17.7046614,15.8499076 C17.7046614,16.3647965 18.0890135,16.7822551 18.5630692,16.7822551 L23.9281181,16.7822551 C24.4021739,16.7822551 24.786526,16.3647965 24.786526,15.8499076 C24.786526,15.3350187 24.4021739,14.9175601 23.9281181,14.9175601 Z" id="Shape"></path>
                                <path d="M23.1206641,18.6469501 L20.2557564,18.6469501 C19.8246541,18.6469501 19.4751276,19.0644087 19.4751276,19.5792976 C19.4751276,20.0941865 19.8246541,20.5116451 20.2557564,20.5116451 L23.1206641,20.5116451 C23.5517664,20.5116451 23.9012929,20.0941865 23.9012929,19.5792976 C23.9012929,19.0644087 23.5517664,18.6469501 23.1206641,18.6469501 Z" id="Shape"></path>
                                <path d="M23.9281181,22.3763401 L18.5630692,22.3763401 C18.0890135,22.3763401 17.7046614,22.7937987 17.7046614,23.3086876 C17.7046614,23.8235766 18.0890135,24.2410351 18.5630692,24.2410351 L23.9281181,24.2410351 C24.4021739,24.2410351 24.786526,23.8235766 24.786526,23.3086876 C24.786526,22.7937987 24.4021739,22.3763401 23.9281181,22.3763401 Z" id="Shape"></path>
                            </g>
                        </g>
                    </g>
                </g>
            </g>
        </g>
    </g>
</svg>