<?xml version="1.0" encoding="UTF-8" standalone="no"?>
<svg
   xmlns:dc="http://purl.org/dc/elements/1.1/"
   xmlns:cc="http://creativecommons.org/ns#"
   xmlns:rdf="http://www.w3.org/1999/02/22-rdf-syntax-ns#"
   xmlns:svg="http://www.w3.org/2000/svg"
   xmlns="http://www.w3.org/2000/svg"
   xmlns:sodipodi="http://sodipodi.sourceforge.net/DTD/sodipodi-0.dtd"
   xmlns:inkscape="http://www.inkscape.org/namespaces/inkscape"
   aria-hidden="true"
   focusable="false"
   data-prefix="fas"
   data-icon="pencil-ruler"
   class="svg-inline--fa fa-pencil-ruler fa-w-16"
   role="img"
   viewBox="0 0 256.0087 256.00986"
   version="1.1"
   id="svg4"
   sodipodi:docname="icon-development.svg"
   inkscape:version="0.92.4 (unknown)"
   width="256.0087"
   height="256.00986">
  <metadata
     id="metadata10">
    <rdf:RDF>
      <cc:Work
         rdf:about="">
        <dc:format>image/svg+xml</dc:format>
        <dc:type
           rdf:resource="http://purl.org/dc/dcmitype/StillImage" />
        <dc:title></dc:title>
      </cc:Work>
    </rdf:RDF>
  </metadata>
  <defs
     id="defs8" />
  <sodipodi:namedview
     pagecolor="#ffffff"
     bordercolor="#666666"
     borderopacity="1"
     objecttolerance="10"
     gridtolerance="10"
     guidetolerance="10"
     inkscape:pageopacity="0"
     inkscape:pageshadow="2"
     inkscape:window-width="640"
     inkscape:window-height="480"
     id="namedview6"
     showgrid="false"
     inkscape:zoom="0.4609375"
     inkscape:cx="256.00506"
     inkscape:cy="-0.00015095354"
     inkscape:window-x="3010"
     inkscape:window-y="280"
     inkscape:window-maximized="0"
     inkscape:current-layer="svg4" />
  <path
     d="M 85.779463,124.56012 124.55847,85.786753 111.84536,73.073607 94.072373,90.846655 a 2.2818468,2.2818542 0 0 1 -3.230143,0 l -3.230143,-3.230154 c -0.89326,-0.893262 -0.89326,-2.339772 0,-3.230153 L 105.38508,66.6133 95.691767,56.917077 c -3.570158,-3.57017 -9.356177,-3.57017 -12.926335,0 L 56.915644,82.766949 c -3.567277,3.570169 -3.570158,9.356208 0,12.926377 z M 197.71645,90.904285 c 5.40566,-5.40568 5.40278,-14.168301 0,-19.573981 L 184.67774,58.291549 c -5.40567,-5.405681 -14.17114,-5.405681 -19.57968,0 l -13.26059,13.257748 32.6184,32.618503 z M 145.31667,78.072997 59.736616,163.64181 54.330953,194.60057 c -0.729015,4.17528 2.907417,7.81173 7.085568,7.07694 l 30.96154,-5.42873 85.557009,-85.56017 z m 53.77713,82.246453 -9.69331,-9.69334 -17.77299,17.77304 c -0.89326,0.89327 -2.33976,0.89327 -3.23014,0 l -3.23015,-3.23015 c -0.89038,-0.89326 -0.89038,-2.33977 0,-3.23015 l 17.773,-17.77305 -12.71887,-12.71891 -38.77901,38.77337 28.87535,28.87256 c 3.57016,3.57016 9.35617,3.57016 12.92633,0 l 25.84979,-25.847 c 3.57016,-3.57017 3.57016,-9.3562 0,-12.92637 z"
     id="path2"
     style="fill:#ffffff;stroke-width:0.28814879"
     inkscape:connector-curvature="0" />
</svg>
