<?xml version="1.0" encoding="UTF-8" standalone="no"?>
<!-- Generator: Adobe Illustrator 16.0.0, SVG Export Plug-In . SVG Version: 6.00 Build 0)  -->

<svg
   xmlns:dc="http://purl.org/dc/elements/1.1/"
   xmlns:cc="http://creativecommons.org/ns#"
   xmlns:rdf="http://www.w3.org/1999/02/22-rdf-syntax-ns#"
   xmlns:svg="http://www.w3.org/2000/svg"
   xmlns="http://www.w3.org/2000/svg"
   xmlns:sodipodi="http://sodipodi.sourceforge.net/DTD/sodipodi-0.dtd"
   xmlns:inkscape="http://www.inkscape.org/namespaces/inkscape"
   version="1.1"
   id="Layer_1"
   x="0px"
   y="0px"
   width="512px"
   height="512px"
   viewBox="0 0 512 512"
   enable-background="new 0 0 512 512"
   xml:space="preserve"
   sodipodi:docname="lock-9.svg"
   inkscape:version="0.92.3 (unknown)"><metadata
   id="metadata3823"><rdf:RDF><cc:Work
       rdf:about=""><dc:format>image/svg+xml</dc:format><dc:type
         rdf:resource="http://purl.org/dc/dcmitype/StillImage" /><dc:title></dc:title></cc:Work></rdf:RDF></metadata><defs
   id="defs3821" /><sodipodi:namedview
   pagecolor="#ffffff"
   bordercolor="#666666"
   borderopacity="1"
   objecttolerance="10"
   gridtolerance="10"
   guidetolerance="10"
   inkscape:pageopacity="0"
   inkscape:pageshadow="2"
   inkscape:window-width="1212"
   inkscape:window-height="800"
   id="namedview3819"
   showgrid="false"
   inkscape:zoom="1.2539062"
   inkscape:cx="256"
   inkscape:cy="256"
   inkscape:window-x="1105"
   inkscape:window-y="190"
   inkscape:window-maximized="0"
   inkscape:current-layer="Layer_1" />
<path
   d="M368,239h-16v-96c0-52.938-43.063-96-96-96s-96,43.063-96,96v32h32v-32c0-35.344,28.656-64,64-64s64,28.656,64,64v96H144  c-43.313,57.75-35.609,139,17.797,187.563c53.406,48.594,134.984,48.594,188.422,0C403.625,378,411.313,296.75,368,239z   M272,362.094V402c0,8.844-7.156,16-16,16s-16-7.156-16-16v-39.906c-9.391-5.594-16-15.375-16-27.094c0-17.688,14.328-32,32-32  s32,14.313,32,32C288,346.719,281.391,356.5,272,362.094z"
   id="path3816"
   style="fill:#ffffff" />
</svg>