<?xml version="1.0" encoding="UTF-8" standalone="no"?>
<svg
   xmlns:dc="http://purl.org/dc/elements/1.1/"
   xmlns:cc="http://creativecommons.org/ns#"
   xmlns:rdf="http://www.w3.org/1999/02/22-rdf-syntax-ns#"
   xmlns:svg="http://www.w3.org/2000/svg"
   xmlns="http://www.w3.org/2000/svg"
   xmlns:sodipodi="http://sodipodi.sourceforge.net/DTD/sodipodi-0.dtd"
   xmlns:inkscape="http://www.inkscape.org/namespaces/inkscape"
   aria-hidden="true"
   data-prefix="fas"
   data-icon="undo"
   class="svg-inline--fa fa-undo fa-w-16"
   role="img"
   viewBox="0 0 512 512"
   version="1.1"
   id="svg60"
   sodipodi:docname="undo-solid.svg"
   inkscape:version="0.92.3 (unknown)">
  <metadata
     id="metadata66">
    <rdf:RDF>
      <cc:Work
         rdf:about="">
        <dc:format>image/svg+xml</dc:format>
        <dc:type
           rdf:resource="http://purl.org/dc/dcmitype/StillImage" />
        <dc:title></dc:title>
      </cc:Work>
    </rdf:RDF>
  </metadata>
  <defs
     id="defs64" />
  <sodipodi:namedview
     pagecolor="#ffffff"
     bordercolor="#666666"
     borderopacity="1"
     objecttolerance="10"
     gridtolerance="10"
     guidetolerance="10"
     inkscape:pageopacity="0"
     inkscape:pageshadow="2"
     inkscape:window-width="2513"
     inkscape:window-height="1025"
     id="namedview62"
     showgrid="false"
     inkscape:zoom="1.6484375"
     inkscape:cx="256"
     inkscape:cy="256"
     inkscape:window-x="47"
     inkscape:window-y="27"
     inkscape:window-maximized="1"
     inkscape:current-layer="svg60" />
  <path
     fill="currentColor"
     d="M212.333 224.333H12c-6.627 0-12-5.373-12-12V12C0 5.373 5.373 0 12 0h48c6.627 0 12 5.373 12 12v78.112C117.773 39.279 184.26 7.47 258.175 8.007c136.906.994 246.448 111.623 246.157 248.532C504.041 393.258 393.12 504 256.333 504c-64.089 0-122.496-24.313-166.51-64.215-5.099-4.622-5.334-12.554-.467-17.42l33.967-33.967c4.474-4.474 11.662-4.717 16.401-.525C170.76 415.336 211.58 432 256.333 432c97.268 0 176-78.716 176-176 0-97.267-78.716-176-176-176-58.496 0-110.28 28.476-142.274 72.333h98.274c6.627 0 12 5.373 12 12v48c0 6.627-5.373 12-12 12z"
     id="path58" />
  <path
     style="fill:#000000;stroke-width:0.60663509"
     d="m 244.41327,503.36628 c -39.45529,-1.8444 -79.13443,-13.58271 -112.90326,-33.40027 -17.92914,-10.52188 -42.211696,-29.33135 -44.29121,-34.30833 -0.990472,-2.37054 -1.085701,-6.73873 -0.198898,-9.1234 0.937136,-2.52002 37.326538,-38.8781 40.312798,-40.27809 4.71026,-2.20824 8.66959,-1.20619 14.23707,3.60319 38.79591,33.5132 91.66793,48.32221 143.12581,40.08836 57.94787,-9.27234 108.06754,-47.67722 132.34559,-101.41164 18.68342,-41.35188 20.51052,-89.43103 5.04226,-132.68456 -3.92053,-10.96289 -12.01826,-27.00967 -18.62099,-36.9001 -28.52627,-42.73038 -71.48412,-69.906784 -122.65107,-77.592675 -10.39777,-1.561872 -38.84152,-1.55927 -48.83412,0.0042 -15.04059,2.353689 -28.67985,5.957253 -40.75284,10.767117 -14.83231,5.909166 -32.80107,16.364378 -45.38934,26.410008 -9.4036,7.50421 -28.51308,27.54519 -31.608,33.14874 -0.55633,1.00727 2.00897,1.06161 50.11319,1.06161 48.64212,0 50.79088,0.0468 52.95026,1.15423 2.84572,1.45937 4.66657,3.40582 5.86157,6.26585 0.79786,1.90956 0.93891,6.15061 0.93891,28.2328 V 214.389 l -1.57524,3.16108 c -1.16949,2.34686 -2.30234,3.58852 -4.3981,4.82053 l -2.82287,1.65967 H 112.16682 9.0388626 l -2.5243135,-1.4463 C 3.6799453,220.95985 2.0034296,218.94524 0.95383161,215.90189 0.42080649,214.35636 0.24599149,188.2945 0.25597695,111.86398 0.26869226,14.538937 0.31968243,9.7772478 1.3740175,7.4564083 2.76615,4.3919962 6.2881256,1.2614975 8.8742333,0.7898607 9.9657275,0.59080147 22.913323,0.50909021 37.646668,0.6082802 l 26.787901,0.18034539 2.330583,1.88422231 c 1.28182,1.0363223 2.876554,2.8107299 3.543853,3.9431281 1.172182,1.9891771 1.22354,3.439744 1.516587,42.831452 l 0.303318,40.772547 8.189573,-8.241022 C 113.33566,48.754339 152.75875,26.342507 197.39905,15.419225 215.73428,10.932675 230.24876,9.0562687 250.47962,8.5570602 309.69213,7.095956 365.15447,25.750644 411.54123,62.729931 c 9.90532,7.896465 29.94685,27.78081 37.19838,36.906628 31.81709,40.040801 50.11808,85.383071 54.37009,134.706571 0.80792,9.37195 0.80792,33.69913 0,43.07109 -8.45031,98.02403 -74.91112,182.34294 -168.32298,213.55155 -28.67046,9.57871 -59.6891,13.83491 -90.37345,12.40051 z"
     id="path72"
     inkscape:connector-curvature="0" />
  <path
     style="fill:#000000;stroke-width:0.60663509"
     d="M 244.10995,503.33496 C 192.70578,501.07977 141.9296,481.81568 101.346,449.17142 92.658248,442.18326 88.134582,437.84748 87.200849,435.6138 c -0.974626,-2.33151 -1.061896,-6.71059 -0.180947,-9.07952 0.937136,-2.52002 37.326538,-38.8781 40.312798,-40.27809 5.16149,-2.41978 8.02836,-1.45871 16.78032,5.62534 7.98373,6.4622 12.65938,9.78483 20.67744,14.69382 51.29067,31.40234 116.31178,34.09931 170.24856,7.06162 44.39174,-22.2529 77.04577,-61.58701 90.80095,-109.37624 2.35238,-8.1728 4.64901,-19.93591 5.77448,-29.57637 0.9517,-8.15194 0.95454,-29.44681 0.005,-37.30806 -3.63511,-30.09423 -12.91333,-55.61299 -28.89377,-79.46919 -6.38838,-9.537 -11.56289,-15.84459 -20.58429,-25.0918 -27.43078,-28.11739 -61.76077,-45.533378 -101.32988,-51.405787 -8.58258,-1.273734 -29.79009,-1.760267 -39.85215,-0.914272 -37.86982,3.184015 -74.22101,19.002 -102.63947,44.662899 -10.16164,9.17561 -24.78075,25.87089 -23.64671,27.00494 0.33995,0.33995 20.88267,0.63188 51.29658,0.72898 l 50.72955,0.16196 2.33098,1.85507 c 1.28204,1.02029 2.94521,3.05728 3.69592,4.52664 1.35237,2.647 1.36493,2.90957 1.36493,28.53782 0,18.20197 -0.21073,26.47725 -0.71118,27.92833 -1.0496,3.04335 -2.72612,5.05796 -5.56072,6.68209 l -2.52431,1.44635 H 112.16682 9.0388626 l -2.8287224,-1.66288 c -1.5557975,-0.91458 -3.466698,-2.68899 -4.2464457,-3.94312 L 0.54597156,216.14408 0.36648135,113.62275 C 0.23912535,40.879509 0.37922493,10.437744 0.84882235,8.8164823 1.6777442,5.9546704 4.7670542,2.3806356 7.3416541,1.304899 c 2.8630059,-1.19624033 54.5219349,-1.19624033 57.3849369,0 2.592783,1.0833342 5.664073,4.6537521 6.455889,7.5050595 0.414035,1.4909285 0.637525,16.1569135 0.639727,41.9801435 l 0.0034,39.688682 8.341233,-8.372286 C 121.723,40.395624 171.64247,16.364016 231.0673,9.4618862 c 10.47754,-1.2169549 42.21074,-1.0232399 53.07451,0.3239929 40.94341,5.0774559 75.58615,17.5717189 108.23422,39.0357949 16.0843,10.574424 27.2863,19.87413 41.61133,34.544993 40.24781,41.219483 64.12919,93.606083 69.20423,151.807583 0.94689,10.85907 0.39217,41.63023 -0.92003,51.03618 -6.74353,48.33795 -23.70959,88.42297 -52.89241,124.96682 -8.2438,10.3232 -27.30731,29.45556 -37.23128,37.36576 -48.85296,38.93966 -105.83812,57.52076 -168.03792,54.79195 z"
     id="path74"
     inkscape:connector-curvature="0" />
  <path
     style="fill:#000000;stroke-width:0.60663509"
     d="m 242.89668,503.35856 c -48.57671,-2.66419 -95.57531,-19.66281 -134.2363,-48.55104 -9.171579,-6.85318 -18.643537,-14.95813 -20.651996,-17.67146 -1.323071,-1.78742 -2.050154,-7.16511 -1.352924,-10.00662 0.579549,-2.36193 37.36667,-39.32948 40.67724,-40.87675 5.30911,-2.48134 8.03731,-1.48743 18.09003,6.59033 23.15248,18.60397 47.80183,30.12353 76.84836,35.91414 12.47626,2.48722 20.98126,3.27434 34.88152,3.2282 28.59146,-0.0949 54.11496,-6.26257 79.46867,-19.20337 18.72913,-9.55955 37.15388,-23.7211 50.6234,-38.90994 24.97203,-28.15958 39.55162,-60.42645 44.08146,-97.559 1.51833,-12.44621 0.92763,-37.12538 -1.17365,-49.0352 -5.41285,-30.67942 -15.98182,-54.79423 -34.92346,-79.68354 -5.45503,-7.1679 -21.27378,-23.25316 -28.57879,-29.06027 -27.77804,-22.082121 -61.2204,-35.347616 -95.84834,-38.019911 -10.9585,-0.845685 -29.46744,-0.405475 -38.55859,0.917069 -35.59328,5.177952 -67.54726,20.091632 -94.06702,43.903312 -6.62007,5.94407 -16.18559,16.22486 -20.97553,22.54401 -2.62004,3.45649 -2.84414,3.97542 -1.88096,4.35547 0.60141,0.23729 23.2558,0.45063 50.34308,0.47408 33.22103,0.0288 49.8054,0.25263 50.95734,0.68787 2.42788,0.91732 5.01305,3.50674 6.32068,6.33107 1.03852,2.2431 1.12446,4.42579 1.13677,28.87142 l 0.0133,26.44486 -1.41203,2.67362 c -0.92738,1.75596 -2.42059,3.29825 -4.35053,4.49352 l -2.9385,1.8199 H 112.21442 9.0388868 l -2.8287223,-1.66288 c -1.5557976,-0.91458 -3.466698,-2.68899 -4.2464457,-3.94312 L 0.54597156,216.14408 0.36648135,113.62275 C 0.23912535,40.879509 0.37922493,10.437744 0.84882235,8.8164823 1.6777442,5.9546704 4.7670542,2.3806356 7.3416541,1.304899 9.8520981,0.25596851 61.621044,0.09764414 64.354821,1.1305363 c 2.427881,0.917317 5.01305,3.5067394 6.320676,6.3310751 1.05742,2.2839179 1.124235,4.7939756 1.136774,42.7055006 l 0.01332,40.278962 8.081053,-8.137324 C 120.66639,41.265198 170.52859,16.904339 228.33744,9.7908486 c 11.12111,-1.3684741 43.39742,-1.553772 53.6872,-0.3082179 43.1927,5.2283753 78.89579,18.1507073 112.53081,40.7292563 14.51802,9.74567 25.80555,19.218759 39.14984,32.856582 19.23869,19.661901 33.30511,39.563501 45.17799,63.919211 12.35397,25.34261 19.44062,49.2005 23.47472,79.02993 1.3308,9.84028 1.52929,47.21219 0.30359,57.15964 -6.01077,48.78209 -23.3681,90.43005 -53.41775,128.17298 -8.21139,10.31367 -27.21504,29.31109 -37.70261,37.69024 -8.86716,7.08452 -23.42476,17.00065 -32.9939,22.47432 -33.28405,19.03887 -70.5523,29.78895 -110.47529,31.86675 -12.45054,0.648 -12.94952,0.64754 -25.17536,-0.023 z"
     id="path76"
     inkscape:connector-curvature="0" />
  <path
     style="fill:#ffffff;stroke-width:0.60663509"
     d="m 241.38009,503.30477 c -52.45288,-3.15435 -102.2784,-22.87258 -143.165872,-56.65731 -7.303474,-6.03475 -10.328745,-9.11663 -11.18663,-11.39596 -0.888829,-2.36153 -0.767557,-7.69552 0.215295,-9.46969 1.603834,-2.89512 37.580347,-38.3781 40.089817,-39.53986 5.19382,-2.40447 7.95547,-1.48269 16.86161,5.62799 26.58101,21.22237 53.89282,33.29414 87.17631,38.53176 8.87712,1.39695 39.57996,1.57527 48.22748,0.28011 48.32932,-7.23838 88.6908,-30.85691 117.3017,-68.642 17.97459,-23.73819 28.5542,-49.04528 33.85605,-80.98578 1.59195,-9.59058 1.59664,-39.93096 0.008,-50.04739 -5.04443,-32.11755 -17.69075,-61.18709 -37.21111,-85.53555 -5.61706,-7.00637 -19.85225,-21.19407 -26.98316,-26.89316 C 348.92872,104.47944 327.5959,93.40601 305.48013,86.867813 291.5596,82.752406 278.88954,80.774558 262.61232,80.175955 213.2294,78.359871 166.59671,96.693469 131.87227,131.57627 c -7.48022,7.51434 -16.97559,18.5812 -16.97559,19.78506 0,1.19913 6.91605,1.3789 53.25172,1.38411 37.99411,0.004 47.25391,0.16065 48.84359,0.82486 2.57091,1.07419 5.66124,4.646 6.49904,7.51159 0.45445,1.55435 0.60867,10.73684 0.48234,28.71866 l -0.18569,26.43374 -1.62751,2.45853 c -1.06016,1.60149 -2.7406,3.0132 -4.82054,4.04968 l -3.19302,1.59115 H 112.16682 10.187034 L 6.994014,222.7425 C 4.9132879,221.70563 3.2340482,220.29466 2.173483,218.69209 L 0.54597156,216.23282 0.36737583,113.66712 C 0.24080676,40.979822 0.38131746,10.435796 0.84971684,8.8164823 1.6773619,5.9552115 4.7665215,2.3808582 7.3416541,1.304899 9.8520981,0.25596851 61.621044,0.09764414 64.354821,1.1305363 c 2.427881,0.917317 5.01305,3.5067394 6.320676,6.3310751 1.057347,2.2837705 1.124235,4.7919506 1.136774,42.6294406 l 0.01332,40.202902 8.81789,-8.793145 C 121.84111,40.418786 171.93184,16.341437 230.46066,9.4874728 c 9.0338,-1.0578939 42.02109,-1.0628313 51.56398,-0.00772 51.39612,5.6826332 97.83391,25.6718672 135.88626,58.4924962 9.17097,7.910072 24.24848,23.485737 31.56495,32.607841 28.99957,36.15636 46.45437,77.41654 52.86628,124.96683 1.59088,11.79791 1.59824,48.77047 0.0121,60.66351 -7.35882,55.17628 -30.44852,103.20968 -68.34925,142.18667 -39.93934,41.07349 -90.3859,66.26094 -147.12723,73.45912 -7.88768,1.00063 -26.71043,2.15983 -33.06161,2.0361 -2.16872,-0.0422 -7.76493,-0.30665 -12.43602,-0.58755 z"
     id="path78"
     inkscape:connector-curvature="0" />
</svg>
